<svg width="64" height="64" viewBox="0 0 64 64" fill="none" xmlns="http://www.w3.org/2000/svg">
<path fill-rule="evenodd" clip-rule="evenodd" d="M35.7348 34.0909C36.1094 34.4968 36.0841 35.1294 35.6783 35.504L32.1783 38.7348C31.7953 39.0884 31.2048 39.0884 30.8218 38.7348L27.3217 35.504C26.9159 35.1294 26.8906 34.4968 27.2652 34.091C27.6398 33.6851 28.2724 33.6598 28.6783 34.0344L30.5 35.716L30.5 26C30.5 25.4477 30.9477 25 31.5 25C32.0523 25 32.5 25.4477 32.5 26L32.5 35.716L34.3217 34.0344C34.7275 33.6598 35.3602 33.6851 35.7348 34.0909Z" fill="#777E91"/>
<rect x="1" y="1" width="62" height="62" rx="31" stroke="#353945" stroke-width="2"/>
</svg>
